HIERARCHY
ROOT Hips
{
  OFFSET -213.699 104.721 0.752556
  CHANNELS 6 Xposition Yposition Zposition Zrotation Xrotation Yrotation
  JOINT RightUpLeg
  {
    OFFSET -8.9458 -8.66707 0.101652
    CHANNELS 3 Zrotation Xrotation Yrotation
    JOINT RightLeg
    {
      OFFSET 0 -44.4227 1.3727
      CHANNELS 3 Zrotation Xrotation Yrotation
      JOINT RightFoot
      {
        OFFSET 0.253549 -42.0924 -1.46059
        CHANNELS 3 Zrotation Xrotation Yrotation
        JOINT RightToes
        {
          OFFSET 0.04 -4.41509 8.4991
          CHANNELS 3 Zrotation Xrotation Yrotation
          End Site
          {
            OFFSET -0.08 -0.137448 9.77979
          }
        }
      }
    }
  }
  JOINT Spine
  {
    OFFSET 0 11.8905 0
    CHANNELS 3 Zrotation Xrotation Yrotation
    JOINT Spine1
    {
      OFFSET 0 25.6574 0.127663
      CHANNELS 3 Zrotation Xrotation Yrotation
      JOINT HEad
      {
        OFFSET 0 8.73416 0.011341
        CHANNELS 3 Zrotation Xrotation Yrotation
        End Site
        {
          OFFSET -0.29 12.7742 2.51395
        }
      }
      JOINT LeftShoulder1
      {
        OFFSET 8.99 -0.362252 -0.22
        CHANNELS 3 Zrotation Xrotation Yrotation
        JOINT LeftArm
        {
          OFFSET 10.2827 -0.00337999 0.322123
          CHANNELS 3 Zrotation Xrotation Yrotation
          JOINT LeftForeArm
          {
            OFFSET 26.2597 0.099144 -1.42434
            CHANNELS 3 Zrotation Xrotation Yrotation
            JOINT LeftHand
            {
              OFFSET 22.0902 0.085362 1.02216
              CHANNELS 3 Zrotation Xrotation Yrotation
              End Site
              {
                OFFSET 13.419 -0.6 1.50291
              }
            }
          }
        }
      }
      JOINT RightShoulder
      {
        OFFSET -8.99 -0.362252 -0.22
        CHANNELS 3 Zrotation Xrotation Yrotation
        JOINT RightArm
        {
          OFFSET -10.2827 -0.00338 0.322123
          CHANNELS 3 Zrotation Xrotation Yrotation
          JOINT RightForeArm
          {
            OFFSET -26.364 0.099144 -1.42434
            CHANNELS 3 Zrotation Xrotation Yrotation
            JOINT RightHand
            {
              OFFSET -22.0324 0.085362 1.02216
              CHANNELS 3 Zrotation Xrotation Yrotation
              End Site
              {
                OFFSET -13.3284 -0.6 1.50291
              }
            }
          }
        }
      }
    }
  }
  JOINT LeftUpLeg
  {
    OFFSET 8.9458 -8.66707 0.101652
    CHANNELS 3 Zrotation Xrotation Yrotation
    JOINT LeftLeg
    {
      OFFSET 0 -44.4227 1.3727
      CHANNELS 3 Zrotation Xrotation Yrotation
      JOINT LeftFoot
      {
        OFFSET -0.253549 -42.0924 -1.46059
        CHANNELS 3 Zrotation Xrotation Yrotation
        JOINT LeftToes
        {
          OFFSET -0.04 -4.41509 8.4991
          CHANNELS 3 Zrotation Xrotation Yrotation
          End Site
          {
            OFFSET 0.08 -0.047448 9.77979
          }
        }
      }
    }
  }
}
MOTION
Frames:	14
Frame Time:	0.0333333
-226.246 104.764 103.477 1.06501 0.197 92.3061 1.37459 2.16894 -1.17533 -0.746735 8.57385 -13.4543 -1.61665 -4.2781 -0.099078 0.0462048 0.000530889 0.662642 -3.84238 -2.32428 -1.35141 1.73819 10.1408 -1.69009 1.58394 1.76619 -0.84865 -33.5624 -4.75962 15.482 -83.3574 -44.1599 -39.901 -172.932 62.333 177.806 11.7317 8.57414 -8.63393 31.612 -1.25721 -7.41674 44.5007 12.49 17.8415 2.44272 30.0756 19.7159 7.91228 9.24386 -13.7113 -2.18339 -0.03214 0.967074 1.40202 9.85535 15.3283 4.77105 -5.68248 -0.0745679 -1.32759e-009 8.75235e-006 -1.47168e-008 
-226.234 104.764 103.48 1.08561 0.21279 92.2531 1.35889 2.18999 -1.18924 -0.746463 8.59141 -13.408 -1.69117 -4.30512 -0.0990815 0.0462048 0.000530889 0.662642 -3.81977 -2.29952 -1.37175 1.66768 10.1327 -1.69355 1.5663 1.79205 -0.876574 -33.5014 -4.70593 15.3661 -83.2383 -44.3485 -39.6176 -172.914 62.4304 177.789 11.8308 8.55587 -8.69806 31.6667 -1.24637 -7.38241 44.4759 12.494 17.8396 2.54211 30.0304 19.6328 7.87378 9.2418 -13.7739 -2.18546 0.0482111 0.996645 1.37055 9.75362 15.3553 4.80607 -5.64355 -0.0745628 -1.32759e-009 8.75235e-006 -1.47168e-008 
-226.228 104.764 103.495 1.10472 0.256062 92.1739 1.3085 2.19316 -1.23553 -0.741003 8.63069 -13.2973 -1.73894 -4.33979 -0.099086 0.0462048 0.000530889 0.662642 -3.8272 -2.21017 -1.41945 1.56979 10.0545 -1.71549 1.43904 1.9149 -0.941351 -33.4633 -4.71567 15.402 -83.0345 -44.4437 -39.4818 -172.902 62.5513 177.709 11.9094 8.53999 -8.76293 31.7287 -1.20264 -7.26044 44.3706 12.9447 17.8391 2.25912 30.1093 19.8985 7.69521 9.28717 -13.3435 -2.20326 0.149787 1.02551 1.32274 9.60193 15.4054 4.88939 -5.57224 -0.0745537 -1.32759e-009 8.75235e-006 -1.47168e-008 
-226.239 104.763 103.518 1.08931 0.32581 92.0876 1.22693 2.10847 -1.29645 -0.731349 8.74464 -13.1428 -1.71325 -4.38179 -0.0990915 0.0462048 0.000530889 0.662642 -3.85184 -2.18763 -1.46572 1.45046 10.0091 -1.72533 1.26811 2.19293 -0.937467 -33.422 -4.77818 15.5714 -82.9853 -44.3908 -39.6808 -172.907 62.5396 177.7 11.8757 8.54192 -8.78633 31.7398 -1.12229 -7.04685 44.3878 13.2067 17.8053 1.8926 30.4679 20.1755 7.48537 9.34703 -12.7282 -2.26099 0.182377 1.00412 1.29747 9.50275 15.5054 4.92999 -5.50931 -0.0750844 -1.32759e-009 8.75235e-006 -1.47168e-008 
-226.257 104.765 103.542 1.03852 0.396305 91.9924 1.15178 1.95408 -1.33377 -0.736941 8.90948 -13.0029 -1.70778 -4.43217 -0.0990982 0.0462048 0.000530889 0.662642 -3.85527 -2.2852 -1.46028 1.36366 10.026 -1.68906 1.16376 2.51385 -0.88797 -33.3448 -4.77256 15.5808 -83.1617 -44.4969 -39.8098 -172.89 62.4861 177.857 11.9455 8.52215 -8.90117 31.6612 -1.05101 -6.8654 44.6145 12.8442 17.7252 1.95188 30.8735 20.0243 7.40373 9.363 -12.58 -2.33169 0.157008 0.957201 1.29057 9.43933 15.6422 4.89674 -5.46256 -0.0769479 -1.32759e-009 8.75235e-006 -1.47168e-008 
-226.266 104.77 103.558 1.00192 0.443144 91.9169 1.10255 1.86428 -1.36201 -0.737261 8.98946 -12.9112 -1.77472 -4.45964 -0.0991019 0.0462048 0.000530889 0.662642 -3.84421 -2.32189 -1.38258 1.39187 9.9712 -1.61347 1.15691 2.69791 -0.92175 -33.322 -4.71358 15.4395 -83.245 -44.6996 -39.6351 -172.847 62.6307 177.923 12.1098 8.48466 -9.07559 31.5333 -1.04532 -6.86176 44.769 12.566 17.6297 2.15079 30.9655 19.8107 7.40081 9.3543 -12.7017 -2.37587 0.170409 0.934867 1.28017 9.33356 15.7434 4.85942 -5.41377 -0.0783175 -1.32759e-009 8.75235e-006 -1.47168e-008 
-226.254 104.777 103.565 1.0339 0.48199 91.9046 1.04326 1.93882 -1.44429 -0.697838 8.92373 -12.8377 -1.84605 -4.45088 -0.0987797 0.0462048 0.000530889 0.662642 -3.8418 -2.1642 -1.2815 1.47743 9.82551 -1.53417 1.22185 2.72218 -1.05198 -33.3897 -4.71586 15.4246 -82.9931 -44.5941 -39.4251 -172.823 62.9671 177.638 11.9838 8.50048 -9.07542 31.4798 -1.10743 -7.03174 44.628 12.9401 17.5882 1.99645 30.8213 19.9961 7.33117 9.37684 -12.4502 -2.41026 0.296345 0.926317 1.27073 9.16492 15.768 4.86736 -5.35353 -0.0793261 -1.32759e-009 8.75235e-006 -1.47168e-008 
-226.233 104.78 103.566 1.10702 0.541972 91.9614 0.94681 2.08377 -1.58115 -0.633046 8.83585 -12.765 -1.85475 -4.44511 -0.0978426 0.0462048 0.000530889 0.662642 -3.85037 -1.97805 -1.23027 1.48761 9.7698 -1.48509 1.2912 2.75843 -1.15575 -33.4346 -4.7809 15.5743 -82.7354 -44.2087 -39.4974 -172.828 63.1942 177.273 11.5813 8.5665 -8.9145 31.5438 -1.18452 -7.23064 44.4676 13.1611 17.6538 1.84649 30.9372 20.1209 7.24591 9.41152 -12.0379 -2.47637 0.464765 0.884042 1.28041 9.00932 15.7517 4.89124 -5.29578 -0.0801675 -1.32759e-009 8.75235e-006 -1.47168e-008 
-226.225 104.782 103.571 1.12533 0.606569 92.0349 0.86293 2.1093 -1.67158 -0.599275 8.86005 -12.7394 -1.83003 -4.47474 -0.0970836 0.0462048 0.000530889 0.662642 -3.85963 -1.97236 -1.24351 1.42521 9.85447 -1.47841 1.25755 2.98898 -1.16221 -33.3816 -4.80412 15.6489 -82.8502 -44.0428 -39.7186 -172.835 63.1686 177.268 11.4827 8.58139 -8.88621 31.6212 -1.23119 -7.34682 44.6602 12.3371 17.7645 2.32583 31.5317 19.5326 7.27563 9.3951 -12.2431 -2.54953 0.516821 0.82177 1.29607 8.9519 15.7402 4.90613 -5.26256 -0.0808494 -1.32759e-009 8.75235e-006 -1.47168e-008 
-226.239 104.783 103.587 1.04883 0.624358 92.0699 0.865135 1.97669 -1.63457 -0.622447 8.95315 -12.8015 -1.81914 -4.50838 -0.0963589 0.0462048 0.000530889 0.662642 -3.84975 -2.07693 -1.27229 1.38296 9.89078 -1.49325 1.0936 3.40886 -1.12104 -33.3039 -4.7615 15.5656 -83.0285 -44.2179 -39.7046 -172.816 63.141 177.435 11.7344 8.53903 -9.00284 31.65 -1.25394 -7.40418 45.0295 11.0935 17.8078 3.06338 32.2927 18.6643 7.30758 9.34955 -12.8509 -2.5562 0.397423 0.808394 1.28561 9.00108 15.726 4.92552 -5.26702 -0.0813781 -1.32759e-009 8.75235e-006 -1.47168e-008 
-226.259 104.783 103.609 0.944023 0.584809 92.0803 0.950962 1.8295 -1.513 -0.669952 8.98715 -12.9322 -1.81407 -4.50035 -0.0956616 0.0462048 0.000530889 0.662642 -3.78849 -2.13293 -1.28117 1.34689 9.82957 -1.49583 0.9397 3.84513 -1.10271 -33.2569 -4.72216 15.4809 -82.7277 -44.311 -39.3421 -172.787 63.3881 177.236 11.6022 8.55619 -8.99562 31.7232 -1.28603 -7.48146 45.0453 10.8137 17.7933 3.14265 32.6407 18.5183 7.13289 9.36194 -12.8317 -2.48184 0.214476 0.861983 1.25136 9.1029 15.6701 4.93798 -5.30187 -0.0817573 -1.32759e-009 8.75235e-006 -1.47168e-008 
-226.267 104.782 103.632 0.88286 0.531327 92.132 1.04839 1.77922 -1.40946 -0.697836 8.93971 -13.0938 -1.80771 -4.46134 -0.0949926 0.0462048 0.000530889 0.662642 -3.66736 -2.21233 -1.27979 1.25078 9.89982 -1.47554 0.912634 4.20651 -1.14166 -33.1857 -4.69384 15.4311 -82.1844 -44.1732 -38.935 -172.738 63.8534 176.73 11.036 8.63337 -8.92999 31.8877 -1.33385 -7.59015 44.6683 11.4985 17.8299 2.65127 32.3749 19.0485 6.80224 9.42568 -12.2057 -2.39144 0.0839701 0.923119 1.22838 9.20565 15.5574 4.91283 -5.33922 -0.0819882 -1.32759e-009 8.75235e-006 -1.47168e-008 
-226.262 104.782 103.648 0.867224 0.503102 92.23 1.10079 1.79907 -1.37275 -0.696223 8.88429 -13.2371 -1.82392 -4.43657 -0.0943568 0.0462048 0.000530889 0.662642 -3.5266 -2.43311 -1.26539 1.14996 10.157 -1.43706 0.915174 4.69474 -1.24022 -33.0935 -4.63099 15.3 -82.0974 -44.1931 -38.8355 -172.655 64.2456 176.547 10.9575 8.63009 -9.07644 32.0132 -1.37678 -7.6894 44.3422 11.9605 17.8853 2.50803 31.7869 19.3072 6.54814 9.45157 -12.042 -2.34422 0.0292527 0.941782 1.23233 9.27401 15.4342 4.87076 -5.3548 -0.0820488 -1.32759e-009 8.75235e-006 -1.47168e-008 
-226.244 104.78 103.652 0.881198 0.506075 92.2799 1.10054 1.8385 -1.38823 -0.685324 8.86935 -13.2743 -1.84996 -4.44616 -0.0937561 0.0462048 0.000530889 0.662642 -3.4103 -2.64102 -1.20207 1.13461 10.2755 -1.36784 0.817567 5.65996 -1.33497 -33.0775 -4.55516 15.1128 -82.4626 -44.5585 -39.032 -172.596 64.326 176.908 11.3252 8.57678 -9.1587 32.0039 -1.41652 -7.79473 44.2356 11.7756 17.8033 2.9011 31.2867 19.0311 6.4446 9.43555 -12.3804 -2.34843 0.0545104 0.925899 1.24876 9.27366 15.3916 4.85472 -5.35282 -0.0816245 -1.32759e-009 8.75235e-006 -1.47168e-008 
